<svg width="125" height="32" viewBox="0 0 125 32" fill="none" xmlns="http://www.w3.org/2000/svg">
<rect width="125" height="32" rx="10" fill="#5973FF" fill-opacity="0.1"/>
<path d="M17.368 22L21.208 10.192H23.704L27.544 22H25.48L24.568 19.2H20.296L19.4 22H17.368ZM20.76 17.424H24.088L22.424 11.888L20.76 17.424ZM29.1226 22V10.192H30.7066L36.0826 18.624V10.192H38.0666V22H36.4826L31.1066 13.568V22H29.1226ZM43.6389 22.096C43.3509 22.096 43.0415 22.0853 42.7109 22.064C42.3909 22.0533 42.0602 22.032 41.7189 22C41.3882 21.9573 41.0735 21.92 40.7749 21.888C40.4762 21.8453 40.2095 21.7973 39.9749 21.744V20.192C40.2735 20.2133 40.6202 20.2347 41.0149 20.256C41.4202 20.2773 41.8415 20.2933 42.2789 20.304C42.7162 20.3147 43.1375 20.32 43.5429 20.32C43.9695 20.32 44.3482 20.2827 44.6789 20.208C45.0095 20.1227 45.2655 19.9787 45.4469 19.776C45.6282 19.5733 45.7189 19.2853 45.7189 18.912V18.352C45.7189 17.936 45.6015 17.616 45.3669 17.392C45.1322 17.168 44.7855 17.056 44.3269 17.056H43.2229C42.1455 17.056 41.3135 16.8213 40.7269 16.352C40.1509 15.8827 39.8629 15.0773 39.8629 13.936V13.328C39.8629 12.1867 40.1775 11.3653 40.8069 10.864C41.4469 10.352 42.3589 10.096 43.5429 10.096C43.9482 10.096 44.3642 10.1173 44.7909 10.16C45.2282 10.192 45.6442 10.2347 46.0389 10.288C46.4335 10.3413 46.7695 10.4 47.0469 10.464V12.016C46.5775 11.984 46.0389 11.952 45.4309 11.92C44.8335 11.888 44.2789 11.872 43.7669 11.872C43.3615 11.872 43.0042 11.9147 42.6949 12C42.3855 12.0853 42.1509 12.24 41.9909 12.464C41.8309 12.6773 41.7509 12.9973 41.7509 13.424V13.808C41.7509 14.3093 41.8842 14.6613 42.1509 14.864C42.4282 15.0667 42.8229 15.168 43.3349 15.168H44.5669C45.2602 15.168 45.8309 15.296 46.2789 15.552C46.7269 15.808 47.0575 16.16 47.2709 16.608C47.4949 17.0453 47.6069 17.5467 47.6069 18.112V18.864C47.6069 19.7387 47.4362 20.4107 47.0949 20.88C46.7535 21.3493 46.2842 21.6693 45.6869 21.84C45.0895 22.0107 44.4069 22.096 43.6389 22.096ZM51.514 22L48.618 10.192H50.666L52.794 19.12L55.258 10.192H57.114L59.562 19.12L61.69 10.192H63.738L60.842 22H58.794L56.186 13.056L53.562 22H51.514ZM67.5431 22.08C67.2871 22.08 66.9991 22.0533 66.6791 22C66.3698 21.9573 66.0711 21.856 65.7831 21.696C65.4951 21.5253 65.2605 21.2747 65.0791 20.944C64.8978 20.6133 64.8071 20.16 64.8071 19.584V12.768C64.8071 12.2667 64.8818 11.8507 65.0311 11.52C65.1805 11.1787 65.3778 10.912 65.6231 10.72C65.8791 10.528 66.1565 10.3947 66.4551 10.32C66.7645 10.2347 67.0685 10.192 67.3671 10.192C68.1138 10.192 68.7858 10.2027 69.3831 10.224C69.9805 10.2453 70.5245 10.2667 71.0151 10.288C71.5165 10.3093 71.9805 10.336 72.4071 10.368V12.016H67.9431C67.5805 12.016 67.2925 12.1067 67.0791 12.288C66.8765 12.4693 66.7751 12.752 66.7751 13.136V15.232L71.6871 15.344V16.896L66.7751 17.008V19.04C66.7751 19.36 66.8285 19.6053 66.9351 19.776C67.0525 19.9467 67.1965 20.064 67.3671 20.128C67.5485 20.192 67.7351 20.224 67.9271 20.224H72.4071V21.872C71.9378 21.9147 71.4258 21.952 70.8711 21.984C70.3165 22.0053 69.7511 22.0213 69.1751 22.032C68.6098 22.0533 68.0658 22.0693 67.5431 22.08ZM74.3071 22V10.192H79.1071C79.5445 10.192 79.9551 10.2453 80.3391 10.352C80.7338 10.448 81.0805 10.6293 81.3791 10.896C81.6885 11.1627 81.9285 11.536 82.0991 12.016C82.2805 12.4853 82.3711 13.0987 82.3711 13.856C82.3711 14.4427 82.3125 14.9333 82.1951 15.328C82.0778 15.712 81.9231 16.0267 81.7311 16.272C81.5391 16.5173 81.3205 16.7093 81.0751 16.848C80.8405 16.976 80.6058 17.0827 80.3711 17.168L82.6431 22H80.6431L78.5951 17.456C78.4458 17.456 78.2698 17.456 78.0671 17.456C77.8751 17.456 77.6725 17.456 77.4591 17.456C77.2458 17.4453 77.0378 17.44 76.8351 17.44C76.6325 17.4293 76.4458 17.424 76.2751 17.424V22H74.3071ZM76.2751 15.872H78.7711C79.0058 15.872 79.2191 15.8453 79.4111 15.792C79.6031 15.728 79.7738 15.6213 79.9231 15.472C80.0725 15.3227 80.1845 15.12 80.2591 14.864C80.3445 14.608 80.3871 14.2773 80.3871 13.872C80.3871 13.4773 80.3445 13.1573 80.2591 12.912C80.1845 12.656 80.0725 12.464 79.9231 12.336C79.7738 12.1973 79.5978 12.1013 79.3951 12.048C79.2031 11.9947 78.9951 11.968 78.7711 11.968H76.2751V15.872Z" fill="#5973FF"/>
<path d="M102.866 21.5C102.481 22.1667 101.519 22.1667 101.134 21.5L95.9378 12.5C95.5529 11.8333 96.034 11 96.8038 11L107.196 11C107.966 11 108.447 11.8333 108.062 12.5L102.866 21.5Z" fill="#5973FF"/>
</svg>
