<svg width="125" height="32" viewBox="0 0 125 32" fill="none" xmlns="http://www.w3.org/2000/svg">
<rect width="125" height="32" rx="10" fill="#5973FF" fill-opacity="0.1"/>
<path d="M31.04 22.096C30.3467 22.096 29.7333 22.016 29.2 21.856C28.6773 21.696 28.2347 21.4027 27.872 20.976C27.52 20.5493 27.2533 19.9413 27.072 19.152C26.8907 18.3627 26.8 17.328 26.8 16.048C26.8 14.8427 26.8907 13.8507 27.072 13.072C27.264 12.2933 27.5413 11.6853 27.904 11.248C28.2773 10.8107 28.7307 10.5067 29.264 10.336C29.7973 10.1653 30.4053 10.08 31.088 10.08C31.5573 10.08 32.0107 10.1067 32.448 10.16C32.896 10.2133 33.3067 10.2773 33.68 10.352C34.064 10.4267 34.3947 10.5067 34.672 10.592V12.112C34.4907 12.0693 34.2347 12.032 33.904 12C33.5733 11.9573 33.2 11.9253 32.784 11.904C32.368 11.872 31.936 11.856 31.488 11.856C30.9973 11.856 30.576 11.9147 30.224 12.032C29.8827 12.1387 29.6053 12.3413 29.392 12.64C29.1787 12.9387 29.024 13.3653 28.928 13.92C28.832 14.4747 28.784 15.1947 28.784 16.08C28.784 16.9547 28.8267 17.6693 28.912 18.224C29.008 18.7787 29.152 19.2107 29.344 19.52C29.5467 19.8187 29.8187 20.0267 30.16 20.144C30.512 20.2613 30.9493 20.32 31.472 20.32C32.272 20.32 32.928 20.304 33.44 20.272C33.952 20.2293 34.3627 20.1867 34.672 20.144V21.664C34.3733 21.7493 34.032 21.824 33.648 21.888C33.2747 21.952 32.8693 22 32.432 22.032C32.0053 22.0747 31.5413 22.096 31.04 22.096ZM39.0878 22C38.5331 22 38.0531 21.9147 37.6478 21.744C37.2531 21.5733 36.9544 21.296 36.7518 20.912C36.5491 20.5173 36.4478 20 36.4478 19.36V10.192H38.4158V19.04C38.4158 19.3387 38.4691 19.5787 38.5758 19.76C38.6824 19.9307 38.8211 20.048 38.9918 20.112C39.1731 20.176 39.3704 20.208 39.5838 20.208H43.5038V22H39.0878ZM49.3645 22.096C48.5752 22.096 47.8818 22.0213 47.2845 21.872C46.6978 21.712 46.2018 21.4293 45.7965 21.024C45.4018 20.608 45.1032 20.0053 44.9005 19.216C44.7085 18.4267 44.6125 17.3973 44.6125 16.128C44.6125 14.848 44.7138 13.8133 44.9165 13.024C45.1192 12.224 45.4178 11.616 45.8125 11.2C46.2178 10.7733 46.7138 10.48 47.3005 10.32C47.8978 10.16 48.5858 10.08 49.3645 10.08C50.1645 10.08 50.8632 10.16 51.4605 10.32C52.0578 10.48 52.5538 10.7733 52.9485 11.2C53.3432 11.616 53.6365 12.224 53.8285 13.024C54.0312 13.8133 54.1325 14.848 54.1325 16.128C54.1325 17.3973 54.0312 18.4267 53.8285 19.216C53.6365 20.0053 53.3378 20.608 52.9325 21.024C52.5378 21.4293 52.0418 21.712 51.4445 21.872C50.8578 22.0213 50.1645 22.096 49.3645 22.096ZM49.3645 20.32C49.8872 20.32 50.3245 20.2667 50.6765 20.16C51.0392 20.0427 51.3272 19.84 51.5405 19.552C51.7538 19.2533 51.9085 18.832 52.0045 18.288C52.1005 17.7333 52.1485 17.0133 52.1485 16.128C52.1485 15.1893 52.0952 14.4427 51.9885 13.888C51.8925 13.3227 51.7378 12.896 51.5245 12.608C51.3112 12.3093 51.0285 12.112 50.6765 12.016C50.3245 11.9093 49.8872 11.856 49.3645 11.856C48.8738 11.856 48.4525 11.9093 48.1005 12.016C47.7485 12.112 47.4605 12.3093 47.2365 12.608C47.0232 12.896 46.8632 13.3227 46.7565 13.888C46.6498 14.4427 46.5965 15.1893 46.5965 16.128C46.5965 17.0133 46.6392 17.7333 46.7245 18.288C46.8205 18.832 46.9752 19.2533 47.1885 19.552C47.4018 19.84 47.6845 20.0427 48.0365 20.16C48.3992 20.2667 48.8418 20.32 49.3645 20.32ZM59.5295 22.096C59.2415 22.096 58.9322 22.0853 58.6015 22.064C58.2815 22.0533 57.9508 22.032 57.6095 22C57.2788 21.9573 56.9642 21.92 56.6655 21.888C56.3668 21.8453 56.1002 21.7973 55.8655 21.744V20.192C56.1642 20.2133 56.5108 20.2347 56.9055 20.256C57.3108 20.2773 57.7322 20.2933 58.1695 20.304C58.6068 20.3147 59.0282 20.32 59.4335 20.32C59.8602 20.32 60.2388 20.2827 60.5695 20.208C60.9002 20.1227 61.1562 19.9787 61.3375 19.776C61.5188 19.5733 61.6095 19.2853 61.6095 18.912V18.352C61.6095 17.936 61.4922 17.616 61.2575 17.392C61.0228 17.168 60.6762 17.056 60.2175 17.056H59.1135C58.0362 17.056 57.2042 16.8213 56.6175 16.352C56.0415 15.8827 55.7535 15.0773 55.7535 13.936V13.328C55.7535 12.1867 56.0682 11.3653 56.6975 10.864C57.3375 10.352 58.2495 10.096 59.4335 10.096C59.8388 10.096 60.2548 10.1173 60.6815 10.16C61.1188 10.192 61.5348 10.2347 61.9295 10.288C62.3242 10.3413 62.6602 10.4 62.9375 10.464V12.016C62.4682 11.984 61.9295 11.952 61.3215 11.92C60.7242 11.888 60.1695 11.872 59.6575 11.872C59.2522 11.872 58.8948 11.9147 58.5855 12C58.2762 12.0853 58.0415 12.24 57.8815 12.464C57.7215 12.6773 57.6415 12.9973 57.6415 13.424V13.808C57.6415 14.3093 57.7748 14.6613 58.0415 14.864C58.3188 15.0667 58.7135 15.168 59.2255 15.168H60.4575C61.1508 15.168 61.7215 15.296 62.1695 15.552C62.6175 15.808 62.9482 16.16 63.1615 16.608C63.3855 17.0453 63.4975 17.5467 63.4975 18.112V18.864C63.4975 19.7387 63.3268 20.4107 62.9855 20.88C62.6442 21.3493 62.1748 21.6693 61.5775 21.84C60.9802 22.0107 60.2975 22.096 59.5295 22.096ZM68.1369 22.08C67.8809 22.08 67.5929 22.0533 67.2729 22C66.9635 21.9573 66.6649 21.856 66.3769 21.696C66.0889 21.5253 65.8542 21.2747 65.6729 20.944C65.4915 20.6133 65.4009 20.16 65.4009 19.584V12.768C65.4009 12.2667 65.4755 11.8507 65.6249 11.52C65.7742 11.1787 65.9715 10.912 66.2169 10.72C66.4729 10.528 66.7502 10.3947 67.0489 10.32C67.3582 10.2347 67.6622 10.192 67.9609 10.192C68.7075 10.192 69.3795 10.2027 69.9769 10.224C70.5742 10.2453 71.1182 10.2667 71.6089 10.288C72.1102 10.3093 72.5742 10.336 73.0009 10.368V12.016H68.5369C68.1742 12.016 67.8862 12.1067 67.6729 12.288C67.4702 12.4693 67.3689 12.752 67.3689 13.136V15.232L72.2809 15.344V16.896L67.3689 17.008V19.04C67.3689 19.36 67.4222 19.6053 67.5289 19.776C67.6462 19.9467 67.7902 20.064 67.9609 20.128C68.1422 20.192 68.3289 20.224 68.5209 20.224H73.0009V21.872C72.5315 21.9147 72.0195 21.952 71.4649 21.984C70.9102 22.0053 70.3449 22.0213 69.7689 22.032C69.2035 22.0533 68.6595 22.0693 68.1369 22.08Z" fill="#5973FF"/>
<path d="M95.134 10.5C95.5189 9.83333 96.4811 9.83333 96.866 10.5L102.062 19.5C102.447 20.1667 101.966 21 101.196 21H90.8038C90.034 21 89.5529 20.1667 89.9378 19.5L95.134 10.5Z" fill="#5973FF"/>
</svg>
