<svg width="12" height="12" viewBox="0 0 12 12" fill="none" xmlns="http://www.w3.org/2000/svg">
<path d="M0.939277 8.93764C0.504861 9.53737 0.193071 10.2169 0.021774 10.9373C-0.010947 11.0807 -0.00673085 11.2301 0.0340278 11.3715C0.0747864 11.5128 0.150754 11.6415 0.254819 11.7455C0.358884 11.8495 0.487642 11.9254 0.629038 11.9661C0.770434 12.0068 0.919843 12.0109 1.06328 11.9781C1.7827 11.8066 2.46129 11.4951 3.06028 11.0613C3.34194 10.7801 3.50034 10.3985 3.50062 10.0005C3.5009 9.60255 3.34305 9.22076 3.06178 8.93914C2.78052 8.65753 2.39889 8.49916 2.00084 8.49888C1.60279 8.4986 1.22094 8.65643 0.939277 8.93764ZM2.35328 10.3519C1.95028 10.61 1.51254 10.8093 1.05328 10.9438C1.18802 10.4847 1.38735 10.0471 1.64528 9.64403C1.73958 9.55296 1.86588 9.50257 1.99698 9.50371C2.12808 9.50485 2.25349 9.55743 2.34619 9.65012C2.43889 9.7428 2.49148 9.86819 2.49262 9.99927C2.49376 10.1303 2.44336 10.2566 2.35228 10.3509L2.35328 10.3519ZM8.9998 4.24943C8.9998 4.58089 8.8681 4.89878 8.63368 5.13316C8.39926 5.36754 8.08132 5.49922 7.7498 5.49922C7.41828 5.49922 7.10033 5.36754 6.86591 5.13316C6.63149 4.89878 6.49979 4.58089 6.49979 4.24943C6.49979 3.91796 6.63149 3.60007 6.86591 3.36569C7.10033 3.13131 7.41828 2.99964 7.7498 2.99964C8.08132 2.99964 8.39926 3.13131 8.63368 3.36569C8.8681 3.60007 8.9998 3.91796 8.9998 4.24943ZM10.4858 0.000136815C9.29593 -0.00693532 8.12042 0.260257 7.05055 0.780971C5.98067 1.30168 5.04521 2.06191 4.31679 3.00264C3.52235 3.0301 2.74316 3.2284 2.03228 3.58404C1.20789 3.96359 0.534896 4.609 0.121274 5.41673C0.0242087 5.64208 -0.0151911 5.88805 0.00663244 6.13243C0.028456 6.37681 0.110816 6.61191 0.246275 6.8165C0.383026 7.0261 0.569919 7.19827 0.790022 7.31743C1.01012 7.43658 1.25648 7.49895 1.50678 7.49888H2.74978C3.21322 7.50112 3.65705 7.68618 3.98475 8.01383C4.31246 8.34148 4.49755 8.78523 4.49979 9.24859V10.4914C4.49961 10.7415 4.56184 10.9878 4.68083 11.2079C4.79983 11.4279 4.97184 11.6148 5.18129 11.7517C5.38591 11.8871 5.62105 11.9695 5.86548 11.9913C6.1099 12.0131 6.35591 11.9737 6.58129 11.8767C7.38916 11.4631 8.03468 10.7902 8.4143 9.96597C8.77 9.25521 8.96834 8.47615 8.9958 7.68185C9.93818 6.9517 10.6995 6.01409 11.2205 4.94191C11.7415 3.86974 12.0082 2.69188 11.9998 1.49989C11.9992 1.30192 11.9596 1.10602 11.8831 0.923417C11.8066 0.740811 11.6949 0.575092 11.5542 0.435762C11.4135 0.296432 11.2468 0.18623 11.0634 0.111476C10.8801 0.0367222 10.6838 -0.00111408 10.4858 0.000136815ZM2.17278 6.49905H1.50678C1.42223 6.4997 1.33889 6.4789 1.26457 6.4386C1.19024 6.39829 1.12735 6.3398 1.08178 6.26859C1.03701 6.20245 1.00964 6.12609 1.00221 6.04657C0.994786 5.96706 1.00753 5.88695 1.03928 5.81367C1.36145 5.22332 1.8676 4.7543 2.48078 4.47789C2.7976 4.31906 3.13209 4.19825 3.47728 4.11795C2.9803 4.876 2.5441 5.67218 2.17278 6.49905ZM7.5228 9.51755C7.24634 10.1305 6.77746 10.6365 6.18729 10.9588C6.11392 10.9906 6.03371 11.0034 5.95409 10.9959C5.87448 10.9885 5.79802 10.9611 5.73179 10.9163C5.66057 10.8707 5.60207 10.8079 5.56176 10.7336C5.52144 10.6592 5.50064 10.5759 5.50129 10.4914V9.8255C6.3283 9.45424 7.12462 9.01811 7.8828 8.52121C7.80201 8.86641 7.68067 9.20085 7.5213 9.51755H7.5228ZM7.5903 7.50788C6.91369 7.97773 6.19943 8.3909 5.45479 8.74318C5.35311 8.19731 5.08851 7.69501 4.69582 7.30239C4.30313 6.90976 3.80075 6.64521 3.25478 6.54354C3.60738 5.7997 4.02078 5.08623 4.49079 4.4104C6.17479 2.06179 7.9198 1.07346 10.4998 0.99997C10.63 0.999919 10.7551 1.05066 10.8485 1.14141C10.9419 1.23216 10.9962 1.35574 10.9998 1.48589C10.9263 4.07946 9.9378 5.82416 7.5888 7.50788H7.5903Z" fill="#35BA6E"/>
</svg>
