<svg width="45" height="34" viewBox="0 0 45 34" fill="none" xmlns="http://www.w3.org/2000/svg">
<mask id="mask0_129_45" style="mask-type:alpha" maskUnits="userSpaceOnUse" x="6" y="0" width="34" height="34">
<circle cx="23" cy="17" r="17" fill="#C4C4C4"/>
</mask>
<g mask="url(#mask0_129_45)">
<path d="M0 0H45V34H0V0Z" fill="#012169"/>
<path d="M5.27344 0L22.4297 12.8208L39.5156 0H45V4.39167L28.125 17.0708L45 29.6792V34H39.375L22.5 21.3208L5.69531 34H0V29.75L16.8047 17.1417L0 4.53333V0H5.27344Z" fill="white"/>
<path d="M29.8125 19.9042L45 31.1667V34L25.9453 19.9042H29.8125ZM16.875 21.3208L17.2969 23.8L3.79688 34H0L16.875 21.3208ZM45 0V0.2125L27.4922 13.5292L27.6328 10.4125L41.4844 0H45ZM0 0L16.8047 12.4667H12.5859L0 2.975V0Z" fill="#C8102E"/>
<path d="M16.9453 0V34H28.1953V0H16.9453ZM0 11.3333V22.6667H45V11.3333H0Z" fill="white"/>
<path d="M0 13.6708V20.4708H45V13.6708H0ZM19.1953 0V34H25.9453V0H19.1953Z" fill="#C8102E"/>
</g>
</svg>
