<svg width="24" height="25" viewBox="0 0 24 25" fill="none" xmlns="http://www.w3.org/2000/svg">
<path d="M6.349 11.2734H3C2.73478 11.2734 2.48043 11.3788 2.29289 11.5663C2.10536 11.7539 2 12.0082 2 12.2734V15.2734H0V12.2734C0 11.4778 0.31607 10.7147 0.87868 10.1521C1.44129 9.58951 2.20435 9.27344 3 9.27344H7.537C7.01384 9.85587 6.61019 10.5354 6.349 11.2734ZM21 9.27344H16.463C16.9862 9.85587 17.3898 10.5354 17.651 11.2734H21C21.2652 11.2734 21.5196 11.3788 21.7071 11.5663C21.8946 11.7539 22 12.0082 22 12.2734V15.2734H24V12.2734C24 11.4778 23.6839 10.7147 23.1213 10.1521C22.5587 9.58951 21.7956 9.27344 21 9.27344ZM16 13.2734C16 12.4823 15.7654 11.709 15.3259 11.0512C14.8864 10.3934 14.2616 9.88067 13.5307 9.57792C12.7998 9.27517 11.9956 9.19596 11.2196 9.3503C10.4437 9.50464 9.73098 9.8856 9.17157 10.445C8.61216 11.0044 8.2312 11.7172 8.07686 12.4931C7.92252 13.269 8.00173 14.0733 8.30448 14.8042C8.60723 15.5351 9.11992 16.1598 9.77772 16.5993C10.4355 17.0388 11.2089 17.2734 12 17.2734C13.0609 17.2734 14.0783 16.852 14.8284 16.1019C15.5786 15.3517 16 14.3343 16 13.2734ZM14 13.2734C14 13.669 13.8827 14.0557 13.6629 14.3846C13.4432 14.7135 13.1308 14.9698 12.7654 15.1212C12.3999 15.2726 11.9978 15.3122 11.6098 15.235C11.2219 15.1578 10.8655 14.9674 10.5858 14.6877C10.3061 14.4079 10.1156 14.0516 10.0384 13.6636C9.96126 13.2757 10.0009 12.8735 10.1522 12.5081C10.3036 12.1426 10.56 11.8303 10.8889 11.6105C11.2178 11.3907 11.6044 11.2734 12 11.2734C12.5304 11.2734 13.0391 11.4842 13.4142 11.8592C13.7893 12.2343 14 12.743 14 13.2734ZM18 21.2734C18 20.4778 17.6839 19.7147 17.1213 19.1521C16.5587 18.5895 15.7956 18.2734 15 18.2734H9C8.20435 18.2734 7.44129 18.5895 6.87868 19.1521C6.31607 19.7147 6 20.4778 6 21.2734V24.2734H8V21.2734C8 21.0082 8.10536 20.7539 8.29289 20.5663C8.48043 20.3788 8.73478 20.2734 9 20.2734H15C15.2652 20.2734 15.5196 20.3788 15.7071 20.5663C15.8946 20.7539 16 21.0082 16 21.2734V24.2734H18V21.2734ZM22 4.27344C22 3.48231 21.7654 2.70895 21.3259 2.05116C20.8864 1.39336 20.2616 0.880672 19.5307 0.577921C18.7998 0.275171 17.9956 0.195957 17.2196 0.350298C16.4437 0.504639 15.731 0.885602 15.1716 1.44501C14.6122 2.00442 14.2312 2.71715 14.0769 3.49308C13.9225 4.269 14.0017 5.07327 14.3045 5.80417C14.6072 6.53508 15.1199 7.15979 15.7777 7.59932C16.4355 8.03884 17.2089 8.27344 18 8.27344C19.0609 8.27344 20.0783 7.85201 20.8284 7.10187C21.5786 6.35172 22 5.33431 22 4.27344ZM20 4.27344C20 4.669 19.8827 5.05568 19.6629 5.38458C19.4432 5.71348 19.1308 5.96982 18.7654 6.1212C18.3999 6.27257 17.9978 6.31218 17.6098 6.23501C17.2219 6.15784 16.8655 5.96736 16.5858 5.68765C16.3061 5.40795 16.1156 5.05158 16.0384 4.66362C15.9613 4.27566 16.0009 3.87352 16.1522 3.50807C16.3036 3.14262 16.56 2.83026 16.8889 2.6105C17.2178 2.39074 17.6044 2.27344 18 2.27344C18.5304 2.27344 19.0391 2.48415 19.4142 2.85923C19.7893 3.2343 20 3.74301 20 4.27344ZM10 4.27344C10 3.48231 9.7654 2.70895 9.32588 2.05116C8.88635 1.39336 8.26164 0.880672 7.53073 0.577921C6.79983 0.275171 5.99556 0.195957 5.21964 0.350298C4.44371 0.504639 3.73098 0.885602 3.17157 1.44501C2.61216 2.00442 2.2312 2.71715 2.07686 3.49308C1.92252 4.269 2.00173 5.07327 2.30448 5.80417C2.60723 6.53508 3.11992 7.15979 3.77772 7.59932C4.43552 8.03884 5.20887 8.27344 6 8.27344C7.06087 8.27344 8.07828 7.85201 8.82843 7.10187C9.57857 6.35172 10 5.33431 10 4.27344ZM8 4.27344C8 4.669 7.8827 5.05568 7.66294 5.38458C7.44318 5.71348 7.13082 5.96982 6.76537 6.1212C6.39991 6.27257 5.99778 6.31218 5.60982 6.23501C5.22186 6.15784 4.86549 5.96736 4.58579 5.68765C4.30608 5.40795 4.1156 5.05158 4.03843 4.66362C3.96126 4.27566 4.00087 3.87352 4.15224 3.50807C4.30362 3.14262 4.55996 2.83026 4.88886 2.6105C5.21776 2.39074 5.60444 2.27344 6 2.27344C6.53043 2.27344 7.03914 2.48415 7.41421 2.85923C7.78929 3.2343 8 3.74301 8 4.27344Z" fill="#252525"/>
</svg>
