<svg width="24" height="25" viewBox="0 0 24 25" fill="none" xmlns="http://www.w3.org/2000/svg">
<path d="M23.896 12.3202C23.5031 9.02331 21.9735 6.01319 19.618 3.90169C17.2626 1.79018 14.258 0.735749 11.215 0.952706C8.17206 1.16966 5.31905 2.64173 3.23588 5.0697C1.15271 7.49767 -0.0042795 10.6993 7.40412e-05 14.0239C-0.00568937 15.8034 0.325076 17.5651 0.971722 19.1991C1.61837 20.833 2.56701 22.304 3.75843 23.5203C4.66961 24.4401 5.87022 24.9427 7.11185 24.9243H16.8772C18.1889 24.9277 19.4492 24.3681 20.3856 23.3667C21.72 21.9512 22.7325 20.2151 23.342 18.2971C23.9515 16.3792 24.1412 14.3324 23.896 12.3202ZM18.9878 21.8035C18.4253 22.4078 17.6669 22.7458 16.8772 22.7442H7.11185C6.38125 22.7606 5.67259 22.4716 5.13119 21.9365C4.13864 20.9229 3.34832 19.6972 2.80955 18.3358C2.27077 16.9744 1.9951 15.5066 1.99973 14.0239C2.00071 12.4894 2.29845 10.9724 2.87352 9.5718C3.44858 8.17121 4.28805 6.91854 5.33715 5.89554C7.15999 4.10341 9.52947 3.11526 11.984 3.12357C12.3762 3.12375 12.7681 3.14777 13.1578 3.19552C15.0331 3.43296 16.8083 4.24474 18.2779 5.53683C19.7474 6.82892 20.8511 8.54844 21.4612 10.4962C22.0713 12.444 22.1628 14.5404 21.725 16.5426C21.2873 18.5447 20.3382 20.3707 18.9878 21.809V21.8035ZM7.80573 18.6948C7.99533 18.8971 8.10342 19.1733 8.10624 19.4626C8.10905 19.7518 8.00635 20.0305 7.82073 20.2372C7.63511 20.4439 7.38177 20.5617 7.11646 20.5648C6.85114 20.5678 6.59557 20.4559 6.40597 20.2535C5.27113 19.0416 4.493 17.4887 4.17077 15.7928C3.84854 14.0969 3.9968 12.3348 4.59667 10.7311C5.19653 9.12738 6.22082 7.75475 7.53897 6.78815C8.85712 5.82154 10.4094 5.30475 11.998 5.30365C12.3804 5.30353 12.7623 5.33303 13.1408 5.39194C13.2708 5.41237 13.3958 5.46053 13.5088 5.53366C13.6217 5.6068 13.7203 5.70347 13.7989 5.81816C13.8776 5.93285 13.9347 6.06331 13.9671 6.20209C13.9995 6.34086 14.0065 6.48523 13.9877 6.62695C13.9704 6.76945 13.9273 6.90676 13.8607 7.0308C13.7941 7.15483 13.7054 7.2631 13.5998 7.34922C13.4943 7.43535 13.374 7.49759 13.2461 7.5323C13.1181 7.567 12.9851 7.57346 12.8549 7.5513C11.6036 7.35645 10.3278 7.59748 9.20958 8.23999C8.09138 8.88251 7.18791 9.89368 6.62809 11.1292C6.06827 12.3647 5.88072 13.7614 6.0922 15.1201C6.30368 16.4787 6.90339 17.7298 7.80573 18.6948ZM19.9156 12.778C19.9697 13.1907 19.9967 13.6071 19.9966 14.0239C19.9999 15.1856 19.7883 16.336 19.3747 17.4065C18.961 18.477 18.3537 19.4457 17.589 20.2546C17.3992 20.457 17.1434 20.5688 16.8779 20.5655C16.6123 20.5623 16.3589 20.4442 16.1733 20.2372C15.9877 20.0302 15.8851 19.7513 15.8881 19.4618C15.8911 19.1723 15.9994 18.896 16.1893 18.6937C16.8648 17.9758 17.375 17.0938 17.678 16.1199C17.9811 15.1459 18.0685 14.1076 17.933 13.0898C17.8951 12.8034 17.963 12.5124 18.1219 12.2807C18.2809 12.049 18.5177 11.8956 18.7803 11.8542C19.043 11.8129 19.3099 11.887 19.5225 12.0602C19.735 12.2335 19.8757 12.4917 19.9136 12.778H19.9156ZM13.9237 13.4658C14.044 13.9376 14.0176 14.4394 13.8487 14.8931C13.6798 15.3468 13.3778 15.7267 12.99 15.9735C12.6021 16.2203 12.1502 16.3201 11.7048 16.2573C11.2594 16.1946 10.8456 15.9728 10.528 15.6265C10.2105 15.2803 10.007 14.8292 9.94946 14.3436C9.89189 13.8581 9.98344 13.3654 10.2098 12.9425C10.4362 12.5196 10.7847 12.1904 11.2008 12.0063C11.6169 11.8221 12.0772 11.7934 12.5099 11.9245L16.2903 7.8031C16.3825 7.69899 16.4928 7.61595 16.6148 7.55882C16.7368 7.5017 16.868 7.47163 17.0007 7.47037C17.1335 7.46911 17.2652 7.49669 17.388 7.5515C17.5109 7.60631 17.6225 7.68725 17.7164 7.78959C17.8103 7.89194 17.8845 8.01364 17.9348 8.1476C17.9851 8.28157 18.0104 8.4251 18.0092 8.56984C18.0081 8.71457 17.9805 8.85761 17.9281 8.99059C17.8757 9.12358 17.7995 9.24386 17.704 9.34442L13.9237 13.4658Z" fill="black"/>
</svg>
