<svg width="11" height="7" viewBox="0 0 11 7" fill="none" xmlns="http://www.w3.org/2000/svg">
<path d="M10.5707 0.237889C10.4183 0.0855689 10.2117 0 9.99627 0C9.78082 0 9.5742 0.0855689 9.42183 0.237889L5.39995 4.25976L1.37808 0.237889C1.22484 0.0898857 1.0196 0.0079899 0.806566 0.00984111C0.593531 0.0116923 0.389746 0.0971423 0.239101 0.247786C0.0884571 0.39843 0.00300884 0.602215 0.00115776 0.81525C-0.000694275 1.02829 0.0812016 1.23352 0.229205 1.38676L4.82552 5.98308C4.97788 6.1354 5.18451 6.22097 5.39995 6.22097C5.6154 6.22097 5.82203 6.1354 5.97439 5.98308L10.5707 1.38676C10.723 1.2344 10.8086 1.02777 10.8086 0.812326C10.8086 0.596881 10.723 0.390255 10.5707 0.237889Z" fill="black"/>
</svg>
