<svg width="27" height="21" viewBox="0 0 27 21" fill="none" xmlns="http://www.w3.org/2000/svg">
<path d="M0 0H26.7083V20.4088H0V0Z" fill="#012169"/>
<path d="M3.12988 0L13.3124 7.69581L23.4533 0H26.7083V2.63613L16.6927 10.2469L26.7083 17.8152V20.4088H23.3698L13.3542 12.798L3.38028 20.4088H0V17.8577L9.9739 10.2894L0 2.72117V0H3.12988Z" fill="white"/>
<path d="M17.6943 11.9476L26.7083 18.708V20.4088L15.399 11.9476H17.6943ZM10.0156 12.798L10.266 14.2861L2.25352 20.4088H0L10.0156 12.798ZM26.7083 0V0.127555L16.3171 8.12099L16.4006 6.25019L24.6218 0H26.7083ZM0 0L9.9739 7.48322H7.46999L0 1.78577V0Z" fill="#C8102E"/>
<path d="M10.0574 0V20.4088H16.7344V0H10.0574ZM0 6.80293V13.6059H26.7083V6.80293H0Z" fill="white"/>
<path d="M0 8.20603V12.2878H26.7083V8.20603H0ZM11.3928 0V20.4088H15.399V0H11.3928Z" fill="#C8102E"/>
</svg>
