<svg width="24" height="25" viewBox="0 0 24 25" fill="none" xmlns="http://www.w3.org/2000/svg">
<path d="M9 11.9252C8.448 11.9252 8 11.4782 8 10.9253C8 9.6173 9.038 9.04632 9.481 8.80232C9.771 8.64333 10.076 8.26734 9.983 7.73636C9.914 7.34437 9.581 7.01138 9.19 6.94338C8.884 6.88739 8.588 6.96538 8.358 7.15938C8.13 7.34937 8 7.62936 8 7.92635C8 8.47933 7.552 8.92632 7 8.92632C6.448 8.92632 6 8.47933 6 7.92635C6 7.03738 6.391 6.19941 7.072 5.62743C7.753 5.05544 8.649 4.81345 9.535 4.97445C10.744 5.18544 11.739 6.17941 11.952 7.39137C12.175 8.66333 11.57 9.93429 10.446 10.5553C9.999 10.8013 9.999 10.8733 9.999 10.9263C9.999 11.4792 9.551 11.9262 8.999 11.9262L9 11.9252ZM9 12.9252C8.31 12.9252 7.75 13.4852 7.75 14.1751C7.75 14.8651 8.31 15.4251 9 15.4251C9.69 15.4251 10.25 14.8651 10.25 14.1751C10.25 13.4852 9.69 12.9252 9 12.9252ZM19.996 10.0053C19.99 10.7743 19.905 11.5232 19.748 12.2472C21.119 13.3482 22 15.0341 22 16.9251V21.9249C22 22.4769 21.552 22.9249 21 22.9249H16C14.109 22.9249 12.423 22.0439 11.322 20.6729C10.598 20.8289 9.849 20.9149 9.08 20.9209C10.465 23.3099 13.045 24.9248 16 24.9248H21C22.657 24.9248 24 23.5818 24 21.9249V16.9251C24 13.9702 22.385 11.3902 19.996 10.0053ZM17.977 10.5763C18.162 7.96335 17.209 5.40643 15.364 3.56049C13.519 1.71455 10.964 0.758584 8.349 0.948577C3.823 1.26857 0 5.51443 0 10.2213V15.2591C0 17.28 1.642 18.925 3.661 18.925H8.138C13.325 18.925 17.647 15.2581 17.977 10.5763ZM13.95 4.97545C15.386 6.4104 16.126 8.40034 15.983 10.4353C15.73 14.0132 12.211 16.9241 8.138 16.9241H3.661C2.745 16.9241 2 16.1771 2 15.2581V10.2203C2 6.5244 4.972 3.19151 8.49 2.94251C8.657 2.93051 8.823 2.92451 8.989 2.92451C10.847 2.92451 12.633 3.65649 13.95 4.97545Z" fill="#252525"/>
</svg>
