<svg width="24" height="25" viewBox="0 0 24 25" fill="none" xmlns="http://www.w3.org/2000/svg">
<path d="M22.2 2.19319C21.6378 1.68038 20.9791 1.30887 20.2705 1.10506C19.5619 0.901248 18.8209 0.870123 18.1 1.0139L14.278 1.771C13.3956 1.94778 12.5933 2.44304 12 3.1772C11.4052 2.44177 10.6006 1.9464 9.716 1.771L5.9 1.0139C5.17916 0.869998 4.43813 0.900714 3.72938 1.10387C3.02062 1.30703 2.36146 1.67766 1.79857 2.18954C1.23567 2.70141 0.782786 3.34201 0.471982 4.06599C0.161178 4.78997 4.88124e-05 5.57963 0 6.37907L0 18.1534C5.74558e-05 19.4307 0.410977 20.6674 1.16113 21.6481C1.91129 22.6287 2.95311 23.2911 4.105 23.5197L10.391 24.7666C11.455 24.9775 12.545 24.9775 13.609 24.7666L19.9 23.5197C21.051 23.2899 22.0916 22.6271 22.8408 21.6465C23.5899 20.666 24.0002 19.4299 24 18.1534V6.37907C24.0005 5.57991 23.8394 4.79046 23.5283 4.06695C23.2171 3.34345 22.7636 2.70367 22.2 2.19319ZM11 22.6644C10.916 22.6513 10.832 22.636 10.748 22.6197L4.463 21.3738C3.77176 21.2367 3.14659 20.8391 2.69649 20.2506C2.24638 19.6621 1.99989 18.9199 2 18.1534V6.37907C2 5.51108 2.31607 4.67863 2.87868 4.06487C3.44129 3.4511 4.20435 3.10629 5 3.10629C5.18109 3.10676 5.36179 3.12465 5.54 3.15975L9.36 3.9234C9.81961 4.01515 10.2353 4.27955 10.5348 4.67073C10.8344 5.0619 10.999 5.55516 11 6.06488V22.6644ZM22 18.1534C22.0001 18.9199 21.7536 19.6621 21.3035 20.2506C20.8534 20.8391 20.2282 21.2367 19.537 21.3738L13.252 22.6197C13.168 22.636 13.084 22.6513 13 22.6644V6.06488C12.9999 5.55391 13.1643 5.05911 13.4643 4.66676C13.7644 4.27442 14.1812 4.00941 14.642 3.91794L18.463 3.15429C18.8957 3.06841 19.3405 3.08737 19.7657 3.20983C20.191 3.3323 20.5863 3.55527 20.9238 3.86297C21.2613 4.17066 21.5326 4.55554 21.7186 4.99035C21.9046 5.42516 22.0007 5.89926 22 6.37907V18.1534Z" fill="black"/>
</svg>
