<svg width="13" height="13" viewBox="0 0 13 13" fill="none" xmlns="http://www.w3.org/2000/svg">
<path d="M3.43904 5.95833H1.625C1.48134 5.95833 1.34357 6.0154 1.24198 6.11698C1.1404 6.21857 1.08333 6.35634 1.08333 6.5V8.125H0V6.5C0 6.06902 0.171205 5.6557 0.475951 5.35095C0.780698 5.04621 1.19402 4.875 1.625 4.875H4.08254C3.79916 5.19048 3.58052 5.55856 3.43904 5.95833ZM11.375 4.875H8.91746C9.20084 5.19048 9.41948 5.55856 9.56096 5.95833H11.375C11.5187 5.95833 11.6564 6.0154 11.758 6.11698C11.8596 6.21857 11.9167 6.35634 11.9167 6.5V8.125H13V6.5C13 6.06902 12.8288 5.6557 12.524 5.35095C12.2193 5.04621 11.806 4.875 11.375 4.875ZM8.66667 7.04167C8.66667 6.61314 8.53959 6.19424 8.30152 5.83793C8.06344 5.48163 7.72505 5.20392 7.32915 5.03993C6.93324 4.87594 6.4976 4.83303 6.0773 4.91663C5.65701 5.00023 5.27095 5.20659 4.96794 5.5096C4.66492 5.81262 4.45857 6.19868 4.37497 6.61897C4.29136 7.03926 4.33427 7.47491 4.49826 7.87081C4.66225 8.26672 4.93996 8.60511 5.29627 8.84318C5.65257 9.08126 6.07147 9.20833 6.5 9.20833C7.07464 9.20833 7.62574 8.98006 8.03207 8.57373C8.43839 8.1674 8.66667 7.6163 8.66667 7.04167ZM7.58333 7.04167C7.58333 7.25593 7.5198 7.46538 7.40076 7.64353C7.28172 7.82169 7.11253 7.96054 6.91457 8.04254C6.71662 8.12453 6.4988 8.14599 6.28865 8.10418C6.07851 8.06238 5.88548 7.95921 5.73397 7.8077C5.58246 7.65619 5.47928 7.46316 5.43748 7.25302C5.39568 7.04287 5.41714 6.82505 5.49913 6.62709C5.58113 6.42914 5.71998 6.25995 5.89813 6.14091C6.07629 6.02187 6.28574 5.95833 6.5 5.95833C6.78732 5.95833 7.06287 6.07247 7.26603 6.27564C7.4692 6.4788 7.58333 6.75435 7.58333 7.04167ZM9.75 11.375C9.75 10.944 9.5788 10.5307 9.27405 10.226C8.9693 9.9212 8.55598 9.75 8.125 9.75H4.875C4.44402 9.75 4.0307 9.9212 3.72595 10.226C3.42121 10.5307 3.25 10.944 3.25 11.375V13H4.33333V11.375C4.33333 11.2313 4.3904 11.0936 4.49198 10.992C4.59357 10.8904 4.73134 10.8333 4.875 10.8333H8.125C8.26866 10.8333 8.40643 10.8904 8.50802 10.992C8.6096 11.0936 8.66667 11.2313 8.66667 11.375V13H9.75V11.375ZM11.9167 2.16667C11.9167 1.73814 11.7896 1.31924 11.5515 0.962932C11.3134 0.606626 10.9751 0.328918 10.5791 0.164929C10.1832 0.000938776 9.7476 -0.0419684 9.3273 0.0416329C8.90701 0.125234 8.52095 0.331589 8.21794 0.634603C7.91492 0.937617 7.70857 1.32368 7.62497 1.74397C7.54136 2.16426 7.58427 2.59991 7.74826 2.99581C7.91225 3.39172 8.18996 3.73011 8.54626 3.96818C8.90257 4.20626 9.32147 4.33333 9.75 4.33333C10.3246 4.33333 10.8757 4.10506 11.2821 3.69873C11.6884 3.2924 11.9167 2.7413 11.9167 2.16667ZM10.8333 2.16667C10.8333 2.38093 10.7698 2.59038 10.6508 2.76854C10.5317 2.94669 10.3625 3.08554 10.1646 3.16754C9.96662 3.24953 9.7488 3.27099 9.53865 3.22918C9.32851 3.18738 9.13548 3.08421 8.98397 2.9327C8.83246 2.78119 8.72928 2.58816 8.68748 2.37802C8.64568 2.16787 8.66714 1.95005 8.74913 1.75209C8.83113 1.55414 8.96998 1.38495 9.14813 1.26591C9.32629 1.14687 9.53574 1.08333 9.75 1.08333C10.0373 1.08333 10.3129 1.19747 10.516 1.40064C10.7192 1.6038 10.8333 1.87935 10.8333 2.16667ZM5.41667 2.16667C5.41667 1.73814 5.28959 1.31924 5.05152 0.962932C4.81344 0.606626 4.47505 0.328918 4.07915 0.164929C3.68324 0.000938776 3.2476 -0.0419684 2.8273 0.0416329C2.40701 0.125234 2.02095 0.331589 1.71794 0.634603C1.41492 0.937617 1.20857 1.32368 1.12497 1.74397C1.04136 2.16426 1.08427 2.59991 1.24826 2.99581C1.41225 3.39172 1.68996 3.73011 2.04626 3.96818C2.40257 4.20626 2.82147 4.33333 3.25 4.33333C3.82464 4.33333 4.37574 4.10506 4.78206 3.69873C5.18839 3.2924 5.41667 2.7413 5.41667 2.16667ZM4.33333 2.16667C4.33333 2.38093 4.2698 2.59038 4.15076 2.76854C4.03172 2.94669 3.86253 3.08554 3.66457 3.16754C3.46662 3.24953 3.2488 3.27099 3.03865 3.22918C2.82851 3.18738 2.63547 3.08421 2.48397 2.9327C2.33246 2.78119 2.22928 2.58816 2.18748 2.37802C2.14568 2.16787 2.16714 1.95005 2.24913 1.75209C2.33113 1.55414 2.46998 1.38495 2.64813 1.26591C2.82629 1.14687 3.03574 1.08333 3.25 1.08333C3.53732 1.08333 3.81287 1.19747 4.01603 1.40064C4.2192 1.6038 4.33333 1.87935 4.33333 2.16667Z" fill="#FFAE00"/>
</svg>
