<svg width="23" height="28" viewBox="0 0 23 28" fill="none" xmlns="http://www.w3.org/2000/svg">
<path d="M11.5 0C8.67482 0.00344047 5.9663 1.16347 3.96859 3.22563C1.97087 5.28778 0.847094 8.08367 0.843761 11C0.840378 13.3832 1.59452 15.7018 2.99051 17.6C2.99051 17.6 3.28114 17.995 3.32861 18.052L11.5 28L19.6753 18.047C19.7179 17.994 20.0095 17.6 20.0095 17.6L20.0105 17.597C21.4058 15.6996 22.1596 13.3821 22.1563 11C22.1529 8.08367 21.0292 5.28778 19.0314 3.22563C17.0337 1.16347 14.3252 0.00344047 11.5 0ZM11.5 15C10.7336 15 9.98442 14.7654 9.34718 14.3259C8.70994 13.8864 8.21327 13.2616 7.91998 12.5307C7.62669 11.7998 7.54995 10.9956 7.69947 10.2196C7.84899 9.44372 8.21804 8.73098 8.75997 8.17157C9.3019 7.61216 9.99236 7.2312 10.744 7.07686C11.4957 6.92252 12.2748 7.00173 12.9829 7.30448C13.691 7.60723 14.2962 8.11992 14.722 8.77772C15.1477 9.43552 15.375 10.2089 15.375 11C15.3737 12.0605 14.9651 13.0771 14.2386 13.827C13.5122 14.5768 12.5273 14.9987 11.5 15Z" fill="white"/>
</svg>
