<svg width="27" height="21" viewBox="0 0 27 21" fill="none" xmlns="http://www.w3.org/2000/svg">
<path d="M2.99847 0.599609H23.536C25.4735 0.599609 26.45 1.57311 26.45 3.55311V17.4461C26.45 19.4096 25.4735 20.3996 23.536 20.3996H2.99847C1.06097 20.3996 0.0844727 19.4096 0.0844727 17.4461V3.55311C0.0844727 1.57311 1.06097 0.599609 2.99847 0.599609ZM13.2595 14.7896L23.7065 5.66511C24.0785 5.33511 24.373 4.57611 23.908 3.89961C23.4585 3.22311 22.637 3.20661 22.0945 3.61911L13.2595 9.98811L4.43997 3.61911C3.89747 3.20661 3.07597 3.22311 2.62647 3.89961C2.16147 4.57611 2.45597 5.33511 2.82797 5.66511L13.2595 14.7896Z" fill="white"/>
</svg>
