<svg width="16" height="16" viewBox="0 0 16 16" fill="none" xmlns="http://www.w3.org/2000/svg">
<path d="M0.730901 3.37773H2.45277C2.58785 3.93928 2.88272 4.435 3.29189 4.78843C3.70105 5.14185 4.20178 5.33333 4.71682 5.33333C5.23185 5.33333 5.73258 5.14185 6.14175 4.78843C6.55092 4.435 6.84578 3.93928 6.98086 3.37773H14.5763C14.7433 3.37773 14.9033 3.30281 15.0214 3.16946C15.1394 3.03611 15.2057 2.85525 15.2057 2.66667C15.2057 2.47808 15.1394 2.29722 15.0214 2.16387C14.9033 2.03052 14.7433 1.9556 14.5763 1.9556H6.98086C6.84578 1.39406 6.55092 0.898331 6.14175 0.544907C5.73258 0.191483 5.23185 0 4.71682 0C4.20178 0 3.70105 0.191483 3.29189 0.544907C2.88272 0.898331 2.58785 1.39406 2.45277 1.9556H0.730901C0.56399 1.9556 0.403915 2.03052 0.285892 2.16387C0.167868 2.29722 0.101563 2.47808 0.101562 2.66667C0.101563 2.85525 0.167868 3.03611 0.285892 3.16946C0.403915 3.30281 0.56399 3.37773 0.730901 3.37773ZM4.7165 1.42231C4.93433 1.42231 5.14726 1.49529 5.32838 1.63202C5.50949 1.76875 5.65065 1.96309 5.73401 2.19047C5.81737 2.41785 5.83918 2.66805 5.79668 2.90943C5.75419 3.15081 5.64929 3.37253 5.49527 3.54656C5.34124 3.72059 5.145 3.8391 4.93136 3.88712C4.71772 3.93513 4.49628 3.91049 4.29504 3.8163C4.09379 3.72212 3.92179 3.56263 3.80077 3.358C3.67975 3.15336 3.61516 2.91278 3.61516 2.66667C3.61549 2.33676 3.73163 2.02047 3.9381 1.78719C4.14457 1.55391 4.42451 1.42268 4.7165 1.42231Z" fill="black"/>
<path d="M14.5763 7.2888H12.8545C12.7196 6.72726 12.4249 6.23149 12.0157 5.87801C11.6066 5.52453 11.1058 5.33301 10.5907 5.33301C10.0757 5.33301 9.57489 5.52453 9.16576 5.87801C8.75662 6.23149 8.46187 6.72726 8.32702 7.2888H0.730901C0.56399 7.2888 0.403915 7.36369 0.285892 7.49701C0.167868 7.63032 0.101563 7.81114 0.101562 7.99967C0.101563 8.18821 0.167868 8.36902 0.285892 8.50234C0.403915 8.63566 0.56399 8.71055 0.730901 8.71055H8.32702C8.46187 9.27208 8.75662 9.76786 9.16576 10.1213C9.57489 10.4748 10.0757 10.6663 10.5907 10.6663C11.1058 10.6663 11.6066 10.4748 12.0157 10.1213C12.4249 9.76786 12.7196 9.27208 12.8545 8.71055H14.5763C14.7433 8.71055 14.9033 8.63566 15.0214 8.50234C15.1394 8.36902 15.2057 8.18821 15.2057 7.99967C15.2057 7.81114 15.1394 7.63032 15.0214 7.49701C14.9033 7.36369 14.7433 7.2888 14.5763 7.2888ZM10.5907 9.24371C10.3729 9.24371 10.16 9.17075 9.97888 9.03405C9.79776 8.89736 9.6566 8.70306 9.57324 8.47575C9.48988 8.24843 9.46807 7.99829 9.51057 7.75698C9.55306 7.51566 9.65796 7.29399 9.81198 7.12001C9.96601 6.94603 10.1622 6.82754 10.3759 6.77954C10.5895 6.73154 10.811 6.75618 11.0122 6.85034C11.2135 6.94449 11.3855 7.10395 11.5065 7.30853C11.6275 7.51311 11.6921 7.75363 11.6921 7.99967C11.6918 8.3295 11.5756 8.6457 11.3691 8.87892C11.1627 9.11215 10.8827 9.24333 10.5907 9.24371Z" fill="black"/>
<path d="M14.5763 12.6226H6.98086C6.84578 12.061 6.55092 11.5653 6.14175 11.2119C5.73258 10.8585 5.23185 10.667 4.71682 10.667C4.20178 10.667 3.70105 10.8585 3.29189 11.2119C2.88272 11.5653 2.58785 12.061 2.45277 12.6226H0.730901C0.56399 12.6226 0.403915 12.6975 0.285892 12.8309C0.167868 12.9642 0.101563 13.1451 0.101562 13.3337C0.101563 13.5222 0.167868 13.7031 0.285892 13.8365C0.403915 13.9698 0.56399 14.0447 0.730901 14.0447H2.45277C2.58785 14.6063 2.88272 15.102 3.29189 15.4554C3.70105 15.8088 4.20178 16.0003 4.71682 16.0003C5.23185 16.0003 5.73258 15.8088 6.14175 15.4554C6.55092 15.102 6.84578 14.6063 6.98086 14.0447H14.5763C14.7433 14.0447 14.9033 13.9698 15.0214 13.8365C15.1394 13.7031 15.2057 13.5222 15.2057 13.3337C15.2057 13.1451 15.1394 12.9642 15.0214 12.8309C14.9033 12.6975 14.7433 12.6226 14.5763 12.6226ZM4.7165 14.578C4.49868 14.578 4.28574 14.505 4.10463 14.3683C3.92351 14.2316 3.78235 14.0372 3.69899 13.8099C3.61564 13.5825 3.59383 13.3323 3.63632 13.0909C3.67882 12.8495 3.78371 12.6278 3.93774 12.4538C4.09176 12.2797 4.288 12.1612 4.50164 12.1132C4.71528 12.0652 4.93672 12.0898 5.13797 12.184C5.33921 12.2782 5.51122 12.4377 5.63224 12.6423C5.75325 12.847 5.81784 13.0875 5.81784 13.3337C5.81735 13.6635 5.70115 13.9797 5.49472 14.2129C5.28828 14.4462 5.00844 14.5775 4.7165 14.578Z" fill="black"/>
</svg>
