<svg width="52" height="52" viewBox="0 0 52 52" fill="none" xmlns="http://www.w3.org/2000/svg">
<circle cx="26" cy="26" r="26" fill="#252525"/>
<path d="M35.032 34.971L30.3334 30.2725C31.5539 28.7797 32.154 26.875 32.0096 24.9523C31.8651 23.0295 30.9871 21.2358 29.5573 19.9423C28.1274 18.6487 26.2551 17.9542 24.3275 18.0024C22.3999 18.0505 20.5646 18.8378 19.2012 20.2012C17.8378 21.5646 17.0505 23.3999 17.0024 25.3275C16.9542 27.2551 17.6487 29.1274 18.9423 30.5573C20.2358 31.9871 22.0295 32.8651 23.9523 33.0096C25.875 33.154 27.7797 32.5539 29.2725 31.3334L33.971 36.032L35.032 34.971ZM24.5273 31.53C23.3401 31.53 22.1796 31.178 21.1924 30.5184C20.2053 29.8588 19.4359 28.9213 18.9816 27.8245C18.5273 26.7276 18.4084 25.5207 18.64 24.3563C18.8716 23.1919 19.4433 22.1223 20.2828 21.2828C21.1223 20.4433 22.1919 19.8716 23.3563 19.64C24.5207 19.4084 25.7276 19.5273 26.8245 19.9816C27.9213 20.4359 28.8588 21.2053 29.5184 22.1924C30.178 23.1796 30.53 24.3401 30.53 25.5273C30.5282 27.1188 29.8952 28.6446 28.7699 29.7699C27.6446 30.8952 26.1188 31.5282 24.5273 31.53Z" fill="white"/>
</svg>
