<svg width="84" height="90" viewBox="0 0 84 90" fill="none" xmlns="http://www.w3.org/2000/svg">
<path fill-rule="evenodd" clip-rule="evenodd" d="M31.1309 1.53857C53.5331 -4.86993 76.5573 9.32658 82.5594 33.238C88.5616 57.1567 75.2652 81.7397 52.87 88.1482C30.4678 94.5567 7.44362 80.3602 1.44147 56.4487C-4.56069 32.53 8.72882 7.94707 31.1309 1.53857Z" fill="#FBD433"/>
<path fill-rule="evenodd" clip-rule="evenodd" d="M35.3417 24.2015C35.8954 24.3402 36.3534 24.6467 36.7294 25.0555C38.7461 23.8511 40.7081 23.3037 42.6222 23.3475C44.2971 23.3913 45.8899 23.8657 47.4075 24.7416C49.5951 20.9753 63.4042 21.4498 66.3369 24.1869C66.7676 24.2964 67.1367 24.4934 67.4512 24.7708L74.1711 26.508L69.3174 30.6319C69.3585 31.3034 69.3653 31.953 69.3653 32.5661C69.3653 39.4636 64.1288 44.5656 57.6823 44.5656C51.2289 44.5656 45.9993 39.4636 45.9993 32.5661C45.9993 31.1136 46.0198 29.8801 46.1086 28.829C44.9465 28.0262 43.757 27.5809 42.5402 27.559C41.1934 27.5225 39.7442 27.997 38.1855 29.0334C38.3428 30.2231 38.3769 31.4786 38.3769 32.5734C38.3769 39.4709 33.1404 44.5729 26.6939 44.5729C20.2338 44.5729 15.0109 39.4709 15.0109 32.5734C15.0109 31.7851 15.0178 31.0698 15.0314 30.3983L9.81543 26.0189L16.802 24.3694C19.1468 21.0118 32.5662 21.6468 35.3417 24.2015ZM19.557 55.7696C30.9665 69.6814 54.4351 69.8055 64.5253 55.7404L66.1728 57.4848C54.8658 77.973 30.9255 78.6956 17.8411 57.5943L19.557 55.7696Z" fill="#141518"/>
</svg>
