<svg width="28" height="32" viewBox="0 0 28 32" fill="none" xmlns="http://www.w3.org/2000/svg">
<path d="M13.8835 0C14.4654 0.0101503 15.0355 0.168947 15.5422 0.461965L26.1107 6.57231C26.5362 6.81865 26.9128 7.14455 27.2209 7.53308L27.2314 7.5267L27.3889 7.76317L27.4074 7.79026L27.604 8.08697L27.59 8.09559C27.851 8.5823 27.9946 9.11346 27.9998 9.6538V22.0751C28.0056 22.7026 27.8499 23.3206 27.5484 23.8669C27.247 24.4133 26.8103 24.8688 26.2825 25.1877L15.8286 31.502C15.395 31.764 14.9111 31.9266 14.4102 31.9785L14.4101 31.9944L13.7415 32L13.7418 31.983C13.2477 31.9375 12.7688 31.7849 12.3368 31.5353L1.23265 25.1146C0.478185 24.6799 0.00874995 23.865 0 22.9747V9.82007C0.00623434 9.35609 0.0852027 8.90834 0.234717 8.49654L0.222249 8.48926L0.508372 7.87715L0.52456 7.88633C0.790531 7.44305 1.15855 7.07324 1.59643 6.80923L12.0504 0.496338C12.5783 0.177135 13.179 0.00594251 13.792 0L13.8837 0H13.8835ZM0.820308 8.83198L0.796902 8.90812C0.703934 9.2233 0.657887 9.56378 0.661387 9.91871V22.9713C0.66425 23.288 0.748586 23.5984 0.905901 23.8711C1.06322 24.1439 1.28796 24.3694 1.55749 24.5249L12.6621 30.9459C12.991 31.1359 13.3538 31.2567 13.7291 31.3011L13.7522 31.3034L13.7548 30.7512L13.757 28.4351L13.7535 25.8059L13.7385 25.8044C13.5088 25.7734 13.2851 25.7062 13.0755 25.605L12.9974 25.5655L12.9284 25.5271L6.20109 21.6375C5.95661 21.4963 5.75278 21.2917 5.61014 21.0443C5.46707 20.7959 5.39049 20.5133 5.38811 20.2249L5.38822 12.3186C5.38581 12.067 5.41666 11.8218 5.4801 11.5906L5.50164 11.5167L0.820308 8.83187V8.83198ZM27.0218 8.44313L22.4062 11.265L22.4164 11.2866C22.5304 11.5383 22.597 11.8062 22.6097 12.0798L22.6117 12.1546L22.6115 19.6786C22.6153 20.0822 22.5153 20.4797 22.3214 20.8311C22.1275 21.1826 21.8467 21.4755 21.5071 21.6806L15.1741 25.5055C14.9561 25.6373 14.7179 25.73 14.4695 25.7798L14.4151 25.7898L14.4162 26.3247L14.4184 29.4237L14.414 31.2438L14.4134 31.2964L14.5122 31.2821C14.829 31.2294 15.1346 31.1217 15.4159 30.9635L15.4924 30.919L25.9465 24.6049C26.3743 24.3463 26.7282 23.977 26.9725 23.5341C27.2172 23.0902 27.3434 22.5881 27.3382 22.0784L27.3385 9.65705C27.3347 9.27323 27.2402 8.88975 27.0655 8.52934L27.0217 8.44313H27.0218ZM13.5624 9.69444C13.4625 9.72467 13.3662 9.76744 13.2764 9.82163L9.03126 12.3852C8.90787 12.4596 8.79944 12.5573 8.71178 12.6733C8.66042 12.7412 8.61631 12.8145 8.5802 12.892L8.55734 12.9503C8.5034 13.0813 8.46911 13.2199 8.45563 13.3614C8.4507 13.4167 8.44819 13.4727 8.44874 13.5293V18.8315C8.45033 18.9843 8.49103 19.1339 8.56675 19.2655C8.64253 19.397 8.75089 19.5057 8.88087 19.5806L13.3904 22.1881C13.586 22.3012 13.8072 22.3597 14.0319 22.3578L14.08 22.3559L14.0803 23.7835L14.0834 25.1454L14.0801 22.3557C14.2896 22.3466 14.4937 22.2848 14.6743 22.1758L18.9195 19.6118C19.1135 19.4946 19.274 19.3271 19.3849 19.1263C19.4027 19.0941 19.4184 19.0609 19.4335 19.0271C19.5122 18.8516 19.5523 18.6605 19.5508 18.4673L19.5509 13.4222C19.5499 13.3312 19.5382 13.2407 19.5162 13.1526C19.5018 13.0941 19.4831 13.0369 19.4603 12.9813C19.4355 12.9206 19.4062 12.8619 19.3727 12.8057L19.3534 12.7739L19.3333 12.7426C19.3025 12.6962 19.2691 12.6517 19.2332 12.6093C19.1247 12.4816 18.9957 12.3737 18.8519 12.2902L14.5601 9.80909C14.41 9.72201 14.2442 9.66695 14.0727 9.64725C13.9013 9.62754 13.7277 9.6436 13.5624 9.69444ZM13.7983 0.676825C13.3014 0.681694 12.8145 0.820526 12.3867 1.07934L1.93265 7.39212C1.61943 7.58078 1.35123 7.83854 1.14756 8.14665L1.10206 8.21774L5.79422 10.9071L5.84289 10.8392C5.9856 10.6483 6.15988 10.4846 6.35783 10.3554L6.41951 10.3166L12.7526 6.49192C13.092 6.28655 13.4783 6.17636 13.8726 6.17245C14.2669 6.16854 14.6552 6.27104 14.9984 6.46964L21.4011 10.1719C21.6222 10.2999 21.8229 10.4618 21.9963 10.6519L22.0394 10.7006L26.6458 7.8842L26.5952 7.8252C26.3812 7.58328 26.1337 7.37486 25.8606 7.20659L25.7855 7.16158L15.217 1.05146C14.7845 0.801208 14.2952 0.672032 13.7985 0.676937L13.7983 0.676825Z" fill="black"/>
</svg>
