<svg width="36" height="36" viewBox="0 0 36 36" fill="none" xmlns="http://www.w3.org/2000/svg">
<g clip-path="url(#clip0_129_59)">
<circle cx="17" cy="18" r="14" fill="white"/>
<path d="M18 0.719727C8.45637 0.719727 0.719971 8.45613 0.719971 17.9997C0.719971 27.5433 8.45637 35.2797 18 35.2797C27.5436 35.2797 35.28 27.5433 35.28 17.9997C35.28 8.45613 27.5436 0.719727 18 0.719727ZM22.0932 12.6609H19.4958C19.188 12.6609 18.846 13.0659 18.846 13.6041V15.4797H22.095L21.6036 18.1545H18.846V26.1843H15.7806V18.1545H12.9996V15.4797H15.7806V13.9065C15.7806 11.6493 17.3466 9.81513 19.4958 9.81513H22.0932V12.6609Z" fill="black"/>
</g>
<defs>
<clipPath id="clip0_129_59">
<rect width="36" height="36" fill="white"/>
</clipPath>
</defs>
</svg>
