<svg width="45" height="44" viewBox="0 0 45 44" fill="none" xmlns="http://www.w3.org/2000/svg">
<circle cx="25" cy="22" r="14" fill="white"/>
<path d="M39.2756 15.2255C39.2567 13.837 38.9909 12.4623 38.49 11.1628C38.0557 10.0668 37.3923 9.07137 36.5422 8.2402C35.6921 7.40903 34.6741 6.76037 33.5531 6.33568C32.2413 5.85417 30.8553 5.5938 29.4544 5.56568C27.6506 5.48684 27.0788 5.46484 22.5 5.46484C17.9213 5.46484 17.3344 5.46484 15.5438 5.56568C14.1434 5.59401 12.7582 5.85437 11.4469 6.33568C10.3257 6.76007 9.30755 7.40863 8.45745 8.23984C7.60734 9.07105 6.94405 10.0666 6.51001 11.1628C6.01657 12.4446 5.75087 13.7994 5.72438 15.1687C5.64376 16.9342 5.61938 17.4933 5.61938 21.9703C5.61938 26.4473 5.61938 27.0193 5.72438 28.772C5.75251 30.1433 6.01688 31.4963 6.51001 32.7815C6.94478 33.8774 7.60856 34.8726 8.45895 35.7034C9.30934 36.5343 10.3276 37.1826 11.4488 37.6068C12.7564 38.1077 14.142 38.3867 15.5456 38.4318C17.3513 38.5107 17.9231 38.5345 22.5019 38.5345C27.0806 38.5345 27.6675 38.5345 29.4581 38.4318C30.859 38.4049 32.2451 38.1451 33.5569 37.6637C34.6776 37.2385 35.6953 36.5897 36.5453 35.7586C37.3953 34.9274 38.0589 33.9323 38.4938 32.8365C38.9869 31.5532 39.2513 30.2002 39.2794 28.827C39.36 27.0633 39.3844 26.5042 39.3844 22.0253C39.3806 17.5483 39.3806 16.98 39.2756 15.2255ZM22.4888 30.4367C17.7 30.4367 13.8206 26.6435 13.8206 21.9612C13.8206 17.2788 17.7 13.4857 22.4888 13.4857C24.7877 13.4857 26.9925 14.3786 28.618 15.9681C30.2436 17.5576 31.1569 19.7133 31.1569 21.9612C31.1569 24.209 30.2436 26.3648 28.618 27.9543C26.9925 29.5437 24.7877 30.4367 22.4888 30.4367ZM31.5019 15.1485C31.2364 15.1488 30.9734 15.0978 30.7281 14.9986C30.4828 14.8993 30.2598 14.7538 30.0721 14.5702C29.8844 14.3866 29.7355 14.1687 29.634 13.9288C29.5325 13.6889 29.4804 13.4318 29.4806 13.1722C29.4806 12.9128 29.5329 12.6559 29.6344 12.4162C29.736 12.1765 29.8848 11.9588 30.0724 11.7753C30.26 11.5919 30.4827 11.4464 30.7278 11.3471C30.9729 11.2479 31.2356 11.1968 31.5009 11.1968C31.7663 11.1968 32.029 11.2479 32.2741 11.3471C32.5192 11.4464 32.7419 11.5919 32.9295 11.7753C33.1171 11.9588 33.2659 12.1765 33.3675 12.4162C33.469 12.6559 33.5213 12.9128 33.5213 13.1722C33.5213 14.2648 32.6175 15.1485 31.5019 15.1485Z" fill="black"/>
<path d="M22.4888 27.4671C25.5985 27.4671 28.1194 25.0022 28.1194 21.9616C28.1194 18.921 25.5985 16.4561 22.4888 16.4561C19.3791 16.4561 16.8582 18.921 16.8582 21.9616C16.8582 25.0022 19.3791 27.4671 22.4888 27.4671Z" fill="black"/>
</svg>
