<svg width="36" height="36" viewBox="0 0 36 36" fill="none" xmlns="http://www.w3.org/2000/svg">
<g clip-path="url(#clip0_129_56)">
<path d="M18 0.719727C8.45637 0.719727 0.719971 8.45613 0.719971 17.9997C0.719971 27.5433 8.45637 35.2797 18 35.2797C27.5436 35.2797 35.28 27.5433 35.28 17.9997C35.28 8.45613 27.5436 0.719727 18 0.719727Z" fill="black"/>
<path d="M13.77 25.1619H10.2708V13.9011H13.77V25.1619ZM11.9988 12.5187C10.8936 12.5187 10.179 11.7357 10.179 10.7673C10.179 9.77913 10.9152 9.01953 12.0438 9.01953C13.1724 9.01953 13.8636 9.77913 13.8852 10.7673C13.8852 11.7357 13.1724 12.5187 11.9988 12.5187ZM26.55 25.1619H23.0508V18.9213C23.0508 17.4687 22.5432 16.4823 21.2778 16.4823C20.3112 16.4823 19.737 17.1501 19.4832 17.7927C19.3896 18.0213 19.3662 18.3453 19.3662 18.6675V25.1601H15.8652V17.4921C15.8652 16.0863 15.8202 14.9109 15.7734 13.8993H18.8136L18.9738 15.4635H19.044C19.5048 14.7291 20.6334 13.6455 22.5216 13.6455C24.8238 13.6455 26.55 15.1881 26.55 18.5037V25.1619Z" fill="white"/>
</g>
<defs>
<clipPath id="clip0_129_56">
<rect width="36" height="36" fill="white"/>
</clipPath>
</defs>
</svg>
